<?xml version="1.0" standalone="yes"?>
<svg xmlns="http://www.w3.org/2000/svg" width="192" height="192">
<path style="fill:#272d40; stroke:none;" d="M0 0C0 4.10712 -1.67264 12.92 1.02778 16.2577C4.41865 20.4488 23.6121 18.9964 29 19C29 24.3515 31.7944 40.485 28.3071 44.3966C23.7637 49.4928 6.21772 45.0007 0 45L0 61L29 62C28.188 68.2504 25.2715 78.8393 18.9568 81.7315C13.9641 84.0182 5.67344 82.6004 0 84L0 97C12.7229 94.638 30.2608 96.635 43 99L43 100L0 98L0 122L4 122L4 123L0 123L0 125L18 125L15 128C20.4701 131.272 25.1973 127.923 31 128.326C49.2247 129.59 70.9475 127.875 89 125L90 132L42 137.17L0 141L0 192L122 192L122 191L114 184L113 184C98.7849 191.704 90.4755 182.803 77.8302 179.316C65.2524 175.848 51.017 176.47 41 167C50.8606 165.33 60.975 161.367 71 161.043C79.4376 160.771 87.76 163.877 96 165.166C99.5427 165.72 111.393 170.96 113.223 165.682C115.756 158.376 104.7 148.754 100.769 143.91C92.5049 133.731 90.9986 125.666 91 113C94.4948 112.61 97.783 109.617 101.09 109.721C120.479 110.333 114.464 133.913 116.885 145C118.151 150.795 124.136 161.698 122 167L122 168L129 169C123.68 159.69 117.806 146.984 118.13 136C118.408 126.558 123.269 117.43 122.957 108C122.485 93.7653 115.934 85.2448 121 71C107.688 79.3973 107.825 98.7235 95.6713 107.377C91.1373 110.606 86.6488 104.825 85.1481 101C81.2483 91.0597 85.7427 83.1027 89 74L88 74C81.6668 84.8406 79.7076 88.2623 67 88L68 85C63.1961 79.9695 63.0184 71.6737 63 65L93 62L90 71L91 71L100 55L101 55L97 71L98 71C99.838 66.2712 101.824 59.7045 107 65L108 65L102 49L99 49L99 47L104 47L105 51L108 49L107 52L113 48C109.084 47.3235 104.946 44.4497 101 44.6782C92.2392 45.1858 86.4563 48.1413 77 46.561C63.645 44.3291 58.3687 36.2984 44 41C43.106 36.1847 40.6676 24.4689 44.6034 20.6073C47.525 17.7407 55.2305 19.9925 59 20C73.7387 20.0294 90.8827 20.5249 105 25C103.605 19.1289 101.403 13.1229 96 10C102.136 5.58633 110.433 5.5997 114 13L110 11C110.912 21.5915 110.152 31.2995 106 41C113.127 39.4495 110.615 33.2439 113.318 28C116.056 22.6869 121.206 19.9144 123 14L113 24L112 24C112.597 19.9546 115.327 15.1162 114.589 11.044C113.315 4.02023 102.089 6 97 6L97 5L100 4L73 2.83025L0 0z"/>
<path style="fill:#47618f; stroke:none;" d="M38 0L38 1L100 3L100 4L97 5L97 6C102.148 6 112.436 4.31514 114.212 11.044C115.221 14.8664 112.345 20.0515 112 24L113 24L123 14L114 26L120 21C123.005 30.94 122.127 34.2872 121 44L118 42L114 47L113 47L110 45L110 44L117 43L117 42L115 40L112 38L114 39L113 28L112 28C111.953 33.6287 111.898 38.8381 106 41L110 32L109 32C107.209 36.8836 104.771 40.722 100 43C100.321 37.116 103.151 29.4092 110 30L110 27L106 24C90.8099 24.1771 75.3438 20.0306 60 20C56.0974 19.9922 47.8167 17.5081 44.6034 20.0285C40.6007 23.1682 42.9749 36.6942 44 41C58.1347 37.4494 62.8987 44.3714 76 46.561C85.5907 48.1638 91.9754 45.739 101 45.1582C104.927 44.9054 109.006 47.5993 113 48L107 52L108 49L105 51L104 47L99 47L102 49L101 52L102 52L107 54L108 54L122 45L121 42L122 41L127 42L127 43L124 45L128 44C127.405 35.2509 126.961 26.6048 138 26L136 14C141.504 20.0947 143.995 27.9472 144 36L143 36L143 34L142 34L141 40C144.388 40 142.465 43.4763 142 46L141 46L141 41L140 41L137 44L132 42C132.47 47.8874 135.861 47.9082 141 47L143 50L150 29C159.487 29 164.297 38.4053 160 47C157.852 51.296 152.987 54.017 150 58C147.98 60.6931 148.101 67.3084 145 69C140.696 71.3478 138.687 65.3134 135 69L135 67L134 67L134 73L133 73L133 63L133 62L122 64C121.913 68.692 119.078 71.091 115 73L115 70L111 71L107 55L103 56L108 65L107 65C102.51 57.7431 99.2867 66.2979 98 71L97 71L101 55L100 55L91 71L90 71L93 62C83.4189 60.2223 72.2405 62.1167 63 65C63.0041 71.1681 62.5259 81.097 68 85L67 88C79.4325 88.5338 83.0179 85.9635 88 74L89 74C84.5005 82.7952 81.6901 91.0908 84.804 101C86.1379 105.245 90.6851 110.873 95.6713 107.968C99.7029 105.618 102.291 98.9443 104.457 95C109.418 85.9658 113.15 77.916 121 71C114.159 84.5347 122.244 94.2204 122.895 108C123.279 116.125 119.438 124.923 118.3 133C116.843 143.343 121.773 160.812 128.709 168.675C132.661 173.156 139.173 178.558 145 180.185C150.529 181.729 158.462 180.529 162 186L163 186L171.924 158L177 145L168 177L169 177C175.634 161.065 182.235 144.741 179.7 127C177.052 108.465 160.919 110.285 156 127L155 127L163 110C149.85 102.394 140.085 83.2881 136 69C146.458 80.5818 149.623 107.36 167.999 110.59C177.212 112.21 176.698 99.8514 176.05 94C174.347 78.6208 169.815 60.2971 159 49C167.081 48.9947 189.935 39.0229 178.258 27.858C174.309 24.0814 164.048 26 159 26L156 30L154 14L150 15C151.051 9.1994 154.261 5.36848 159 2L154 8L166 1L162 4L163 9L170 9L168 5L174 8L172 5L179 9L192 4L192 0L145 0.152008L128 2L127 2C120.916 -2.26141 109.238 0 102 0L38 0z"/>
<path style="fill:#272d40; stroke:none;" d="M126 0L126 2L128 2L128 0L126 0M132 0L132 1L138 1L132 0M144.667 0.333328L145.333 0.666672L144.667 0.333328M168 0L169 1L168 0M138 1L142 3L142 2L138 1M143 1L144 2L143 1M159 1L160 2L159 1M163 1L163 5L164 5L166 1L163 1M169 1L172 5L169 1M118 2L119 5L124 3L118 2M150 15L154 14L156 30L159 26C164.229 26 173.239 24.3213 177.566 27.858C189.789 37.8483 166.787 48.9777 159 49C168.059 63.0044 174.339 77.9369 176.046 95C176.627 100.8 175.888 112.841 167 110.011C148.393 104.086 149.326 78.7696 136 69C138.352 82.2349 150.022 104.969 163 110L155 127L156 127C163.203 110.305 177.712 109.263 179.826 129C181.729 146.762 173.696 160.698 169 177L168 177L177 145L171.924 157L163 189L192 183L192 179L165 187L180 161L180 160L179 154L189 156L182 159L182 160L192 160L192 153L181 149L192 151L192 120C186.256 120.047 180.943 121.677 179 115L192 114L192 4L179 9C178.24 5.45544 175.284 5.62096 172 5L174 8L168 5L170 9L163 9L163 5L162 5L159 24L156 17L159 16L157 10L152 12L159 2C153.479 4.59785 150.621 8.97462 150 15z"/>
<path style="fill:#82685d; stroke:none;" d="M154 11L157 10L159 17L159 23L163 2C158.225 3.34128 155.341 6.22516 154 11z"/>
<path style="fill:#272d40; stroke:none;" d="M166 3L168 5L166 3z"/>
<path style="fill:#47618f; stroke:none;" d="M97 11L98 11L101 8C98.2517 7.39748 97.5004 8.3623 97 11z"/>
<path style="fill:#82685d; stroke:none;" d="M97 9L109 28L110 11L113 12C110.774 5.12897 102.347 6.74397 97 9z"/>
<path style="fill:#47618f; stroke:none;" d="M109.667 7.33333L110.333 7.66667L109.667 7.33333M153 9C152.425 11.3962 152.525 11.487 155 12L153 9M113 10L113 13L114 13L113 10M155 10L156 11L155 10M100 13L101 14L100 13z"/>
<path style="fill:#272d40; stroke:none;" d="M136 14L138 26C133.305 26.1136 130.449 26.8055 128 31C136.015 26.9192 140.152 26.2812 143 36L144 36C143.999 28.4459 142.571 18.8177 136 14z"/>
<path style="fill:#47618f; stroke:none;" d="M101 15L102 16L101 15M158 16L159 17L158 16M0 17L0 45C5.7309 45.0038 25.168 49.6064 28.9329 44.3966C31.9243 40.2571 29 24.4216 29 19L0 17M102 17L103 18L102 17M156.333 17.6667L156.667 18.3333L156.333 17.6667M160 17L161 18L160 17M103 19L104 20L103 19M157 20L158 21L157 20z"/>
<path style="fill:#9892c5; stroke:none;" d="M119 21L113 29C117.06 27.4669 122.554 25.9116 119 21z"/>
<path style="fill:#47618f; stroke:none;" d="M104 22L105 23L104 22M159 22L160 23L159 22M158 23L159 24L158 23z"/>
<path style="fill:#272d40; stroke:none;" d="M122.333 24.6667L122.667 25.3333L122.333 24.6667M105 26L107 28L105 26z"/>
<path style="fill:#82685d; stroke:none;" d="M113 32L123 28C118.944 25.4389 114.384 27.5838 113 32M113 27L114 28L113 27z"/>
<path style="fill:#47618f; stroke:none;" d="M118 27L119 28L118 27z"/>
<path style="fill:#9892c5; stroke:none;" d="M121 27C117.152 29.8482 113.769 30.9334 113 36L114 36L122 30L123 30L121 27z"/>
<path style="fill:#47618f; stroke:none;" d="M133 27L134 30L135 30L135 27L133 27z"/>
<path style="fill:#82685d; stroke:none;" d="M135 30C130.833 29.0731 129.052 30.3426 127 34L128 34C135.227 26.4903 144.541 43.4128 130 40L130 41L137 44L143 36C140.306 36 133.767 28.5643 138 28C135.687 26.8835 134.988 27.6095 135 30z"/>
<path style="fill:#47618f; stroke:none;" d="M138 27L138 28L141 29L138 27M116.667 28.3333L117.333 28.6667L116.667 28.3333z"/>
<path style="fill:#b9bce7; stroke:none;" d="M121 28L120 33L123 32L121 28z"/>
<path style="fill:#9892c5; stroke:none;" d="M135 28L141 37C142.823 31.902 140.137 28.4 135 28M105 29L104 32L105 32L105 29z"/>
<path style="fill:#b9bce7; stroke:none;" d="M105 30L109 34C108.494 31.0262 108.039 30.1436 105 30z"/>
<path style="fill:#9892c5; stroke:none;" d="M107.667 29.3333L108.333 29.6667L107.667 29.3333z"/>
<path style="fill:#47618f; stroke:none;" d="M114 29L115 30L114 29z"/>
<path style="fill:#9892c5; stroke:none;" d="M150 29L151 30L150 29z"/>
<path style="fill:#b9bce7; stroke:none;" d="M150 30L153 47L152 47L149 32L148 32C145.56 36.5721 146.798 41.2856 145.005 46C143.292 50.5053 139.52 53.7181 137.454 58C135.061 62.9574 138.071 69.9306 144.57 67.3071C147.321 66.1967 148.219 61.2901 149.803 59C156.12 49.8667 164.058 43.9858 159 32L158 35C155.972 31.1469 154.531 29.1447 150 30z"/>
<path style="fill:#9892c5; stroke:none;" d="M154 29L155 30L154 29z"/>
<path style="fill:#82685d; stroke:none;" d="M109.333 30.6667L109.667 31.3333L109.333 30.6667z"/>
<path style="fill:#b9bce7; stroke:none;" d="M116 30L117 31L116 30z"/>
<path style="fill:#82685d; stroke:none;" d="M123 30L119 44L120 44L121 44L123 30z"/>
<path style="fill:#9892c5; stroke:none;" d="M130 30L131 33C123.569 33 129.385 38.4595 129 40L139 41L140 37L138 34L133 32L136 33L130 30z"/>
<path style="fill:#47618f; stroke:none;" d="M141.333 30.6667L141.667 31.3333L141.333 30.6667z"/>
<path style="fill:#272d40; stroke:none;" d="M148 30L149 31L148 30z"/>
<path style="fill:#b9bce7; stroke:none;" d="M129 31L129 33L131 33L131 31L129 31z"/>
<path style="fill:#9892c5; stroke:none;" d="M150 31L152 34L152 33L150 31M156 31L157 35L158 35L159 31L156 31z"/>
<path style="fill:#82685d; stroke:none;" d="M104.667 32.3333L105.333 32.6667L104.667 32.3333z"/>
<path style="fill:#9892c5; stroke:none;" d="M101 36L106 34L106 38L107 38L109 35L107 32L101 36z"/>
<path style="fill:#82685d; stroke:none;" d="M120 37L120 36L117 33L120 35C120.844 29.9518 112.419 36.1771 120 37z"/>
<path style="fill:#9892c5; stroke:none;" d="M122 32L123 33L122 32z"/>
<path style="fill:#b9bce7; stroke:none;" d="M133 32L136 34L133 32z"/>
<path style="fill:#82685d; stroke:none;" d="M141 32L142 33L141 32z"/>
<path style="fill:#9892c5; stroke:none;" d="M147 32L148 33L147 32z"/>
<path style="fill:#82685d; stroke:none;" d="M150 32L151 33L150 32z"/>
<path style="fill:#9892c5; stroke:none;" d="M159 32L160 33L159 32z"/>
<path style="fill:#b9bce7; stroke:none;" d="M115 33L114 37L115 33z"/>
<path style="fill:#272d40; stroke:none;" d="M117 33L118 37L119 37L119 33L117 33z"/>
<path style="fill:#47618f; stroke:none;" d="M119 33L120 34L119 33z"/>
<path style="fill:#9892c5; stroke:none;" d="M121 33L119 38L114 37L120 42L123 37L121 37L123 34L121 33M146 33L147 34L146 33z"/>
<path style="fill:#b9bce7; stroke:none;" d="M101 43L106 34C101.298 35.4275 101.054 38.4614 101 43z"/>
<path style="fill:#82685d; stroke:none;" d="M131 34C130.501 37.3142 131.059 38.3799 134 40L133 34L131 34M151 34L152 35L151 34z"/>
<path style="fill:#9892c5; stroke:none;" d="M160.333 34.6667L160.667 35.3333L160.333 34.6667z"/>
<path style="fill:#b9bce7; stroke:none;" d="M121 35L121 38L123 35L121 35z"/>
<path style="fill:#272d40; stroke:none;" d="M131 35L132 39L133 39L133 35L131 35z"/>
<path style="fill:#82685d; stroke:none;" d="M135 35L136 36L135 35z"/>
<path style="fill:#b9bce7; stroke:none;" d="M137 35L139 38L137 35z"/>
<path style="fill:#9892c5; stroke:none;" d="M151 35L152 47L153 47L151 35z"/>
<path style="fill:#82685d; stroke:none;" d="M113.333 36.6667L113.667 37.3333L113.333 36.6667z"/>
<path style="fill:#9892c5; stroke:none;" d="M100 37L100 43L101 43L100 37z"/>
<path style="fill:#82685d; stroke:none;" d="M127 37L128 38L127 37z"/>
<path style="fill:#b9bce7; stroke:none;" d="M135 37L137 40L135 37z"/>
<path style="fill:#82685d; stroke:none;" d="M112 38L114 41L115 38L112 38z"/>
<path style="fill:#b9bce7; stroke:none;" d="M116 38L120 41L116 38z"/>
<path style="fill:#82685d; stroke:none;" d="M128.333 38.6667L128.667 39.3333L128.333 38.6667z"/>
<path style="fill:#b9bce7; stroke:none;" d="M129 38L130 39L129 38z"/>
<path style="fill:#9892c5; stroke:none;" d="M105 39L106 40L105 39M112 39L113 40L112 39z"/>
<path style="fill:#272d40; stroke:none;" d="M127 39C128.957 47.973 133.547 50.068 142 51L141 47C132.732 47.8457 133.101 42.8103 127 39z"/>
<path style="fill:#b9bce7; stroke:none;" d="M130 39L131 40L130 39z"/>
<path style="fill:#272d40; stroke:none;" d="M142 39L141 46L142 46L142 39z"/>
<path style="fill:#9892c5; stroke:none;" d="M104 40L105 41L104 40z"/>
<path style="fill:#82685d; stroke:none;" d="M114 41L114 42L118 42L114 41z"/>
<path style="fill:#47618f; stroke:none;" d="M129 40L130 41L129 40z"/>
<path style="fill:#b9bce7; stroke:none;" d="M137 40L138 41L137 40z"/>
<path style="fill:#9892c5; stroke:none;" d="M103 41L104 42L103 41z"/>
<path style="fill:#272d40; stroke:none;" d="M122 41L121 42L122 45L116 46L116 48L125 47L127 43L122 41z"/>
<path style="fill:#82685d; stroke:none;" d="M145.333 41.6667L145.667 42.3333L145.333 41.6667z"/>
<path style="fill:#9892c5; stroke:none;" d="M102 42L103 43L102 42z"/>
<path style="fill:#272d40; stroke:none;" d="M108 42L108 44L110 44L108 42M117 42L110 44L110 45L113 47L114 47L117 42z"/>
<path style="fill:#9892c5; stroke:none;" d="M145 43L145 46L146 46L145 43M160.333 43.6667L160.667 44.3333L160.333 43.6667M125.667 44.3333L126.333 44.6667L125.667 44.3333z"/>
<path style="fill:#82685d; stroke:none;" d="M127 44L131 48L127 44M125.333 45.6667L125.667 46.3333L125.333 45.6667z"/>
<path style="fill:#b9bce7; stroke:none;" d="M126 45L122 51C117.718 49.4499 114.393 48.4395 112 53L129 57L130 53L135 62C135.27 58.2601 135.363 56.0157 132 54C132.002 49.4433 130.038 46.9763 126 45z"/>
<path style="fill:#9892c5; stroke:none;" d="M159 46L160 47L159 46M114 47L114 49L116 49L114 47z"/>
<path style="fill:#82685d; stroke:none;" d="M115 47L116 48L115 47z"/>
<path style="fill:#47618f; stroke:none;" d="M123 47L124 48L123 47z"/>
<path style="fill:#9892c5; stroke:none;" d="M124 47L125 48L124 47M144 47L145 48L144 47z"/>
<path style="fill:#82685d; stroke:none;" d="M159 47L160 48L159 47M116 48L117 49L116 48z"/>
<path style="fill:#47618f; stroke:none;" d="M117 48L118 49L117 48z"/>
<path style="fill:#82685d; stroke:none;" d="M122 48L123 49L122 48z"/>
<path style="fill:#47618f; stroke:none;" d="M131 48L136 52L136 51L131 48z"/>
<path style="fill:#272d40; stroke:none;" d="M142 48L143 49L142 48z"/>
<path style="fill:#9892c5; stroke:none;" d="M158 48L159 49L158 48z"/>
<path style="fill:#82685d; stroke:none;" d="M113 49L114 50L113 49z"/>
<path style="fill:#9892c5; stroke:none;" d="M118 49L119 50L118 49z"/>
<path style="fill:#82685d; stroke:none;" d="M119 49L120 50L119 49z"/>
<path style="fill:#47618f; stroke:none;" d="M121 49L122 50L121 49z"/>
<path style="fill:#9892c5; stroke:none;" d="M122 49L123 50L122 49M131 49L132 50L131 49M143 49L144 50L143 49M102 50L102 51L106 53L102 50M112.667 50.3333L113.333 50.6667L112.667 50.3333M120.667 50.3333L121.333 50.6667L120.667 50.3333M132 50L133 51L132 50z"/>
<path style="fill:#47618f; stroke:none;" d="M137 50L137 51L141 53L142 52L137 50z"/>
<path style="fill:#82685d; stroke:none;" d="M142 50L143 51L142 50z"/>
<path style="fill:#9892c5; stroke:none;" d="M157 50L158 51L157 50z"/>
<path style="fill:#b9bce7; stroke:none;" d="M102 51L105 56L102 51z"/>
<path style="fill:#9892c5; stroke:none;" d="M111 51L106 54L106 55L110 55L110 57L118 54L117 56L129 59L129 58L123 58L123 57L125 56L111 51M133 51L132 54L133 54L133 51z"/>
<path style="fill:#82685d; stroke:none;" d="M136 51L137 52L136 51z"/>
<path style="fill:#9892c5; stroke:none;" d="M137 51L138 52L137 51z"/>
<path style="fill:#b9bce7; stroke:none;" d="M138 51L137 55L138 55L138 51z"/>
<path style="fill:#9892c5; stroke:none;" d="M139 51L140 54L137 55L136 52L135 52C136.968 55.4639 141.072 55.2354 139 51M156 51L157 52L156 51M102 52L103 53L102 52z"/>
<path style="fill:#82685d; stroke:none;" d="M109.667 52.3333L110.333 52.6667L109.667 52.3333M133 52L136 58L137 58L138 56L135 52L133 52z"/>
<path style="fill:#9892c5; stroke:none;" d="M141 52L142 53L141 52M155 52L156 53L155 52z"/>
<path style="fill:#82685d; stroke:none;" d="M102 53L103 54L102 53M106 53L107 54L106 53z"/>
<path style="fill:#9892c5; stroke:none;" d="M130 53L129 57L130 57L130 53z"/>
<path style="fill:#47618f; stroke:none;" d="M134 53L135 54L134 53z"/>
<path style="fill:#82685d; stroke:none;" d="M139 53L140 54L139 53z"/>
<path style="fill:#9892c5; stroke:none;" d="M154 53L155 54L154 53z"/>
<path style="fill:#47618f; stroke:none;" d="M102 54L103 55L102 54z"/>
<path style="fill:#9892c5; stroke:none;" d="M103.333 54.6667L103.667 55.3333L103.333 54.6667z"/>
<path style="fill:#82685d; stroke:none;" d="M107 54L108 55L107 54z"/>
<path style="fill:#b9bce7; stroke:none;" d="M110 54L111 55L110 54z"/>
<path style="fill:#82685d; stroke:none;" d="M112.667 54.3333L113.333 54.6667L112.667 54.3333M116.667 54.3333L117.333 54.6667L116.667 54.3333z"/>
<path style="fill:#9892c5; stroke:none;" d="M153 54L154 55L153 54M105 55L106 56L105 55z"/>
<path style="fill:#b9bce7; stroke:none;" d="M108 55L107 58C113.754 59.6258 126.251 67.2819 131 60C124.029 57.8625 117.119 54.4691 110 57L110 55L108 55z"/>
<path style="fill:#47618f; stroke:none;" d="M111 55L112 56L111 55z"/>
<path style="fill:#82685d; stroke:none;" d="M118 55L119 56L118 55M130 55L131 56L130 55z"/>
<path style="fill:#9892c5; stroke:none;" d="M152 55L153 56L152 55M104 56L105 57L104 56z"/>
<path style="fill:#82685d; stroke:none;" d="M106 56L107 57L106 56M122 56L123 57L122 56z"/>
<path style="fill:#47618f; stroke:none;" d="M130 56L131 60L132 60L130 56z"/>
<path style="fill:#9892c5; stroke:none;" d="M131.333 56.6667L131.667 57.3333L131.333 56.6667M135 56L136 57L135 56z"/>
<path style="fill:#47618f; stroke:none;" d="M136 56L137 57L136 56z"/>
<path style="fill:#9892c5; stroke:none;" d="M151 56L152 57L151 56M106 57L107 62L119 62L106 57z"/>
<path style="fill:#47618f; stroke:none;" d="M123.667 57.3333L124.333 57.6667L123.667 57.3333z"/>
<path style="fill:#82685d; stroke:none;" d="M125 57L125 58L130 59L125 57z"/>
<path style="fill:#9892c5; stroke:none;" d="M137 57L138 58L137 57M150 57L151 58L150 57z"/>
<path style="fill:#82685d; stroke:none;" d="M106 58L107 59L106 58z"/>
<path style="fill:#9892c5; stroke:none;" d="M135 58L133 63L137 58L135 58z"/>
<path style="fill:#82685d; stroke:none;" d="M107 59L108 60L107 59z"/>
<path style="fill:#9892c5; stroke:none;" d="M130 59L131 60L130 59M132 59L130 62L132 59M149 59L150 60L149 59z"/>
<path style="fill:#b9bce7; stroke:none;" d="M108 61L112 70L115 69L116 72L122 65L108 61z"/>
<path style="fill:#82685d; stroke:none;" d="M115 60L116 61L115 60z"/>
<path style="fill:#9892c5; stroke:none;" d="M148 60L149 61L148 60z"/>
<path style="fill:#47618f; stroke:none;" d="M0 61L0 84C16.1028 81.5536 27.4083 81.9731 29 62L0 61z"/>
<path style="fill:#82685d; stroke:none;" d="M131.667 61.3333L132.333 61.6667L131.667 61.3333z"/>
<path style="fill:#47618f; stroke:none;" d="M118 62L121 64L118 62z"/>
<path style="fill:#82685d; stroke:none;" d="M119 62L120 63L119 62z"/>
<path style="fill:#9892c5; stroke:none;" d="M120 62L121 63L120 62M147.333 62.6667L147.667 63.3333L147.333 62.6667M108 63L109 64L108 63M120 64L120 65L125 64L120 64M128.667 63.3333L129.333 63.6667L128.667 63.3333z"/>
<path style="fill:#272d40; stroke:none;" d="M131 63L133 73L134 73L134 67L135 67L135 69L136 69L131 63z"/>
<path style="fill:#82685d; stroke:none;" d="M133 63L134 64L133 63M135 63L136 64L135 63z"/>
<path style="fill:#9892c5; stroke:none;" d="M118 64L119 65L118 64z"/>
<path style="fill:#47618f; stroke:none;" d="M133 64L133 65L136 66L133 64z"/>
<path style="fill:#9892c5; stroke:none;" d="M109 65L110 66L109 65M136.333 65.6667L136.667 66.3333L136.333 65.6667z"/>
<path style="fill:#82685d; stroke:none;" d="M122 66L123 67L122 66z"/>
<path style="fill:#9892c5; stroke:none;" d="M146.333 66.6667L146.667 67.3333L146.333 66.6667M110 67L111 68L110 67M137 67L137 68L146 69L137 67z"/>
<path style="fill:#272d40; stroke:none;" d="M148 67C146.695 76.1921 161.345 84.6164 168 89L154 70L155 75L148 67M109 68L89 85C94.3788 82.931 110.343 74.6172 109 68z"/>
<path style="fill:#9892c5; stroke:none;" d="M121 68L122 69L121 68z"/>
<path style="fill:#82685d; stroke:none;" d="M141 68L142 69L141 68z"/>
<path style="fill:#9892c5; stroke:none;" d="M111 69L112 70L111 69M113.667 69.3333L114.333 69.6667L113.667 69.3333M120 69L121 70L120 69z"/>
<path style="fill:#82685d; stroke:none;" d="M111 70L112 71L111 70z"/>
<path style="fill:#9892c5; stroke:none;" d="M115 70L118 73L118 72L115 70M119 70L120 71L119 70M118 71L119 72L118 71z"/>
<path style="fill:#272d40; stroke:none;" d="M89 72L90 73L89 72z"/>
<path style="fill:#82685d; stroke:none;" d="M115 72L116 73L115 72z"/>
<path style="fill:#9892c5; stroke:none;" d="M132 75L129 82L127 82L122 77C121.184 87.4296 124.808 96.753 124.821 107C124.844 125.582 119.081 139.182 125.355 158C127.717 165.084 138.295 181.777 147.867 178.353C156.014 175.439 153.785 155.461 153.17 149C152.06 137.336 155.465 125.455 152.985 114C149.993 100.174 141.057 89.0392 136 76L135 76L136 91L135 91L132 75z"/>
<path style="fill:#82685d; stroke:none;" d="M135 75L136 76L135 75M133 77L133 81L134 81L133 77z"/>
<path style="fill:#47618f; stroke:none;" d="M175 78C176.271 82.6034 178.324 83.7411 183 84C182.795 77.7421 180.614 77.4806 175 78M114 80L110 89L116 89L116 80L114 80z"/>
<path style="fill:#82685d; stroke:none;" d="M121.333 80.6667L121.667 81.3333L121.333 80.6667M138 82L139 83L138 82M139 84L140 85L139 84M121 86L122 87L121 86M135 87L134 90L135 87M140 87L141 88L140 87z"/>
<path style="fill:#47618f; stroke:none;" d="M135.333 89.6667L135.667 90.3333L135.333 89.6667z"/>
<path style="fill:#82685d; stroke:none;" d="M122 92L123 93L122 92M145 95L146 96L145 95z"/>
<path style="fill:#47618f; stroke:none;" d="M0 97L0 98L43 100L29 97.9606L0 97M43 100C50.2754 107.429 67.7848 101.396 77 101C69.2218 95.5948 52.8316 100.943 43 100z"/>
<path style="fill:#82685d; stroke:none;" d="M123 98L124 99L123 98M147 98L148 99L147 98M124 103L124 111L125 111L124 103M150 105L151 106L150 105M151 108L152 109L151 108z"/>
<path style="fill:#47618f; stroke:none;" d="M91 113C90.9965 118.313 89.9255 123.833 91.4468 129C94.7654 140.271 104.579 147.258 110.367 157C113.197 161.765 114.72 166.919 108 168L108 169L127 169L127 168L122 168C125.167 162.562 118.244 150.221 116.885 144C114.416 132.692 120.696 109.973 101.09 109.369C97.6804 109.264 94.3991 112.321 91 113z"/>
<path style="fill:#82685d; stroke:none;" d="M152 111L153 112L152 111z"/>
<path style="fill:#47618f; stroke:none;" d="M179 115C180.185 122.427 186.182 120.12 192 120L192 116L187 116L187 115L192 115L179 115z"/>
<path style="fill:#82685d; stroke:none;" d="M153.333 115.667L153.667 116.333L153.333 115.667M187 115L188 116L187 115z"/>
<path style="fill:#9892c5; stroke:none;" d="M188 115L188 116L192 116L188 115z"/>
<path style="fill:#82685d; stroke:none;" d="M123 116L124 117L123 116M122.333 120.667L122.667 121.333L122.333 120.667z"/>
<path style="fill:#47618f; stroke:none;" d="M0 122L0 123L4 123L0 122M17.6667 122.333L18.3333 122.667L17.6667 122.333M8 125L8 126L10 130L17 132L42 130L42 129L15 128L18 125L8 125M0 125L0 126L7 126L0 125M64 126L64 127L85 126L64 126M87.6667 125.333L88.3333 125.667L87.6667 125.333z"/>
<path style="fill:#82685d; stroke:none;" d="M0 126L0 127L11 129C8.52044 125.175 4.19237 126 0 126M11 126L12 127L11 126M78 126L78 127L81 127L78 126z"/>
<path style="fill:#9892c5; stroke:none;" d="M56 128L56 129L85 127L85 128L44 132L44 131L55 130L55 129L16 132.845L1 137C20.252 133.477 42.4091 132.748 62 133.499C69.5173 133.787 84.7164 133.033 89 126L56 128z"/>
<path style="fill:#82685d; stroke:none;" d="M85.6667 126.333L86.3333 126.667L85.6667 126.333M121 126L122 127L121 126z"/>
<path style="fill:#47618f; stroke:none;" d="M0 127L0 128L6 129L0 127M55 127L55 128L63 128L55 127z"/>
<path style="fill:#82685d; stroke:none;" d="M63.6667 127.333L64.3333 127.667L63.6667 127.333z"/>
<path style="fill:#b9bce7; stroke:none;" d="M44 131L44 132L85 128C75.5346 124.605 53.6562 128.145 44 131z"/>
<path style="fill:#47618f; stroke:none;" d="M89 127C81.6539 133.048 68.9842 132.975 60 133.258C40.6193 133.869 20.0991 133.462 1 137L2 134L0 141L44 137.09L90 132L89 127z"/>
<path style="fill:#272d40; stroke:none;" d="M0 128L0 134L14 132L0 128z"/>
<path style="fill:#47618f; stroke:none;" d="M44 128L44 129L52 129L44 128z"/>
<path style="fill:#82685d; stroke:none;" d="M52 128L52 129L56 129L52 128M88 128L89 129L88 128M153 128L154 129L153 128z"/>
<path style="fill:#272d40; stroke:none;" d="M154 128L154 133L155 133L154 128z"/>
<path style="fill:#82685d; stroke:none;" d="M11 129L12 130L11 129M42.6667 129.333L43.3333 129.667L42.6667 129.333M31 130L31 131L36 131L31 130M19 131L19 132L28 132L19 131z"/>
<path style="fill:#b9bce7; stroke:none;" d="M38.6667 131.333L39.3333 131.667L38.6667 131.333z"/>
<path style="fill:#47618f; stroke:none;" d="M10 132L10 133L13 133L10 132z"/>
<path style="fill:#82685d; stroke:none;" d="M13 132L13 133L19 133L13 132z"/>
<path style="fill:#47618f; stroke:none;" d="M3 133L3 134L6 134L3 133z"/>
<path style="fill:#82685d; stroke:none;" d="M6 133L6 134L11 134L6 133M67 133L68 134L67 133M2 134L2 135L5 135L2 134M15 135L16 136L15 135z"/>
<path style="fill:#272d40; stroke:none;" d="M153 135L153 139L154 139L153 135z"/>
<path style="fill:#82685d; stroke:none;" d="M3 136L4 137L3 136M122 147L123 148L122 147z"/>
<path style="fill:#47618f; stroke:none;" d="M181 149L181 151L183 151L181 149z"/>
<path style="fill:#82685d; stroke:none;" d="M182 149L182 150L190 152L190 151L182 149z"/>
<path style="fill:#47618f; stroke:none;" d="M184 149L184 150L187 150L184 149z"/>
<path style="fill:#82685d; stroke:none;" d="M153.333 150.667L153.667 151.333L153.333 150.667z"/>
<path style="fill:#47618f; stroke:none;" d="M189 150L188 152L188 153L192 153L189 150z"/>
<path style="fill:#82685d; stroke:none;" d="M123 151L124 152L123 151z"/>
<path style="fill:#47618f; stroke:none;" d="M184 151L184 152L187 152L184 151M179 154L180 160L180 161L165 187C171.545 186.718 186.845 184.053 190.972 178.437C196.752 170.573 192.491 156.701 182 160L182 159L189 156L179 154z"/>
<path style="fill:#82685d; stroke:none;" d="M124 155L125 156L124 155M179 159L185 155L179 159M125 158L126 159L125 158z"/>
<path style="fill:#47618f; stroke:none;" d="M66 161L67 162L66 161z"/>
<path style="fill:#82685d; stroke:none;" d="M49 166L51 169L47 170L47 172C53.7989 174.212 69.8494 181.329 76.7014 178.382C79.3789 177.23 83.022 172.276 85 170L82 172L86 167L90 167L90 164C74.8268 160.346 63.8491 162.117 49 166z"/>
<path style="fill:#47618f; stroke:none;" d="M77 161L78 162L77 161z"/>
<path style="fill:#82685d; stroke:none;" d="M126 161L127 162L126 161z"/>
<path style="fill:#47618f; stroke:none;" d="M61 162L62 163L61 162M81.6667 162.333L82.3333 162.667L81.6667 162.333z"/>
<path style="fill:#82685d; stroke:none;" d="M153 162L153 165L154 165L153 162z"/>
<path style="fill:#47618f; stroke:none;" d="M57 163L58 164L57 163M88.6667 163.333L89.3333 163.667L88.6667 163.333z"/>
<path style="fill:#82685d; stroke:none;" d="M127 163L128 164L127 163z"/>
<path style="fill:#47618f; stroke:none;" d="M55 164L56 165L55 164M90 164L99 166L99 165L90 164z"/>
<path style="fill:#272d40; stroke:none;" d="M154.333 164.667L154.667 165.333L154.333 164.667z"/>
<path style="fill:#47618f; stroke:none;" d="M41 167L47 172L51 169L51 166L41 167M87 166L88 167L87 166z"/>
<path style="fill:#9892c5; stroke:none;" d="M90 166L90 167L99 167L90 166z"/>
<path style="fill:#82685d; stroke:none;" d="M99 166L100 167L99 166z"/>
<path style="fill:#47618f; stroke:none;" d="M100.667 166.333L101.333 166.667L100.667 166.333M86 167L87 168L86 167z"/>
<path style="fill:#9892c5; stroke:none;" d="M88 167L89 168L88 167z"/>
<path style="fill:#b9bce7; stroke:none;" d="M82 182L84 182L92 173L92 174C86.9205 176.788 83.8286 182.821 91 185C91.5946 179.676 94.0529 176.934 99 175L99 176C83.5487 183.169 102.858 190.548 110.361 183.987C112.633 182.001 114.279 172.184 115 169C105.113 169.818 76.2335 160.806 82 182z"/>
<path style="fill:#9892c5; stroke:none;" d="M101.667 167.333L102.333 167.667L101.667 167.333z"/>
<path style="fill:#82685d; stroke:none;" d="M103 167L104 168L103 167z"/>
<path style="fill:#47618f; stroke:none;" d="M104.667 167.333L105.333 167.667L104.667 167.333z"/>
<path style="fill:#82685d; stroke:none;" d="M129 167L130 168L129 167z"/>
<path style="fill:#9892c5; stroke:none;" d="M86 168L87 169L86 168M105.667 168.333L106.333 168.667L105.667 168.333z"/>
<path style="fill:#82685d; stroke:none;" d="M107 168L108 169L107 168z"/>
<path style="fill:#9892c5; stroke:none;" d="M113 168L113 169L111 181L114 180L115 185L116 185C114.953 179.304 117.477 176.325 123 175L123 174L113 179L120 171L120 170L116 171L113 168z"/>
<path style="fill:#82685d; stroke:none;" d="M115 168L116 169L115 168z"/>
<path style="fill:#47618f; stroke:none;" d="M82 172L85 169L82 172z"/>
<path style="fill:#9892c5; stroke:none;" d="M85 169L86 170L85 169M109 169L109 170L112 170L109 169M121 169L121 170L124 170L121 169z"/>
<path style="fill:#b9bce7; stroke:none;" d="M113 179L123 174L123 175C116.918 175.82 113.153 180.335 117 186L123 180C110.924 195.195 149.353 194.093 157.891 191.682C164.292 189.875 161.091 183.378 155 185L154 181C150.641 181.116 147.218 181.681 144 180.427C135.458 177.099 117.109 158.816 113 179z"/>
<path style="fill:#9892c5; stroke:none;" d="M127 169L128 170L127 169z"/>
<path style="fill:#82685d; stroke:none;" d="M128 169L129 170L128 169M131 169L132 170L131 169M116.667 170.333L117.333 170.667L116.667 170.333z"/>
<path style="fill:#9892c5; stroke:none;" d="M129 170L130 171L129 170z"/>
<path style="fill:#82685d; stroke:none;" d="M130 170L131 171L130 170M152 170L153 171L152 170z"/>
<path style="fill:#272d40; stroke:none;" d="M153 170L153 173L154 173L153 170z"/>
<path style="fill:#9892c5; stroke:none;" d="M131 171L132 172L131 171z"/>
<path style="fill:#82685d; stroke:none;" d="M134 171L135 172L134 171z"/>
<path style="fill:#47618f; stroke:none;" d="M47.6667 172.333L48.3333 172.667L47.6667 172.333M81.3333 172.667L81.6667 173.333L81.3333 172.667z"/>
<path style="fill:#9892c5; stroke:none;" d="M133 172L134 173L133 172z"/>
<path style="fill:#47618f; stroke:none;" d="M51 173L52 174L51 173z"/>
<path style="fill:#272d40; stroke:none;" d="M80 173L79 177L80 177L80 173z"/>
<path style="fill:#9892c5; stroke:none;" d="M82 173L83 174L82 173M82 182L82 183L88 185C86.0769 179.789 87.8527 177.346 92 174C86.9602 172.984 85.0287 178.92 82 182z"/>
<path style="fill:#82685d; stroke:none;" d="M134 173L135 174L134 173z"/>
<path style="fill:#47618f; stroke:none;" d="M54 174L55 175L54 174M79 174L80 175L79 174z"/>
<path style="fill:#82685d; stroke:none;" d="M81 174L82 175L81 174z"/>
<path style="fill:#9892c5; stroke:none;" d="M135 174L136 175L135 174z"/>
<path style="fill:#82685d; stroke:none;" d="M151 174L152 175L151 174z"/>
<path style="fill:#47618f; stroke:none;" d="M59 175L60 176L59 175M80 175L81 176L80 175z"/>
<path style="fill:#9892c5; stroke:none;" d="M81 175L82 176L81 175M90 186L93 186C92.7118 180.954 94.9594 178.709 99 176C92.8448 174.579 91.2225 181.341 90 186M136 175L137 176L136 175z"/>
<path style="fill:#47618f; stroke:none;" d="M151.333 175.667L151.667 176.333L151.333 175.667z"/>
<path style="fill:#272d40; stroke:none;" d="M152.333 175.667L152.667 176.333L152.333 175.667z"/>
<path style="fill:#82685d; stroke:none;" d="M80 176L81 177L80 176z"/>
<path style="fill:#9892c5; stroke:none;" d="M137 176L138 177L137 176z"/>
<path style="fill:#47618f; stroke:none;" d="M79 177L78 179L80 179L79 177z"/>
<path style="fill:#9892c5; stroke:none;" d="M80 177L80 180L81 180L80 177M138 177L139 178L138 177z"/>
<path style="fill:#82685d; stroke:none;" d="M139 177L140 178L139 177z"/>
<path style="fill:#272d40; stroke:none;" d="M151 177L152 178L151 177z"/>
<path style="fill:#47618f; stroke:none;" d="M70.6667 178.333L71.3333 178.667L70.6667 178.333z"/>
<path style="fill:#82685d; stroke:none;" d="M140 178L141 179L140 178M143 178L144 179L143 178M149 178L150 179L149 178z"/>
<path style="fill:#9892c5; stroke:none;" d="M123.667 179.333L124.333 179.667L123.667 179.333M141 179L142 180L141 179z"/>
<path style="fill:#82685d; stroke:none;" d="M142 179L143 180L142 179M80 180L81 181L80 180M112 180L112 183L113 183L114 180L112 180z"/>
<path style="fill:#9892c5; stroke:none;" d="M117 187L123 180L117 187M143.667 180.333L144.333 180.667L143.667 180.333z"/>
<path style="fill:#82685d; stroke:none;" d="M145 180L146 181L145 180z"/>
<path style="fill:#9892c5; stroke:none;" d="M150 180L150 181L154 181L150 180z"/>
<path style="fill:#82685d; stroke:none;" d="M81 181L82 182L81 181z"/>
<path style="fill:#47618f; stroke:none;" d="M113 181L110 185L110 186L113 181z"/>
<path style="fill:#9892c5; stroke:none;" d="M146 181L146 182L149 182L146 181M154 181L155 185L156 185L154 181z"/>
<path style="fill:#82685d; stroke:none;" d="M83 183L83 184L86 184L83 183z"/>
<path style="fill:#47618f; stroke:none;" d="M185 182L185 183L189 183L185 182M84 183L85 184L84 183z"/>
<path style="fill:#9892c5; stroke:none;" d="M112 183L113 184L112 183z"/>
<path style="fill:#82685d; stroke:none;" d="M155 183L155 184L158 184L155 183z"/>
<path style="fill:#9892c5; stroke:none;" d="M158 183L158 184L162 185L158 183z"/>
<path style="fill:#47618f; stroke:none;" d="M183 183L184 184L183 183z"/>
<path style="fill:#82685d; stroke:none;" d="M163 190L163 192L192 192L192 183L163 190M86 184L87 185L86 184z"/>
<path style="fill:#9892c5; stroke:none;" d="M111 184L112 185L111 184z"/>
<path style="fill:#47618f; stroke:none;" d="M114 184L115 185L114 184M181 184L182 185L181 184M87.6667 185.333L88.3333 185.667L87.6667 185.333z"/>
<path style="fill:#82685d; stroke:none;" d="M89 185L90 186L89 185M91 185L92 186L91 185z"/>
<path style="fill:#9892c5; stroke:none;" d="M105 185L105 186L109 186L105 185z"/>
<path style="fill:#82685d; stroke:none;" d="M109 185L110 186L109 185M115 185L116 186L115 185z"/>
<path style="fill:#47618f; stroke:none;" d="M179 185L180 186L179 185M92 186L93 187L92 186z"/>
<path style="fill:#82685d; stroke:none;" d="M93 186L94 187L93 186z"/>
<path style="fill:#9892c5; stroke:none;" d="M94 186L94 187L100 187L94 186z"/>
<path style="fill:#82685d; stroke:none;" d="M100 186L100 187L103 187L100 186z"/>
<path style="fill:#47618f; stroke:none;" d="M103 186L103 187L106 187L103 186z"/>
<path style="fill:#82685d; stroke:none;" d="M116 186L117 187L116 186M162 186L162 189L163 189L162 186z"/>
<path style="fill:#47618f; stroke:none;" d="M177.667 186.333L178.333 186.667L177.667 186.333M117 187L121 191L117 187z"/>
<path style="fill:#82685d; stroke:none;" d="M118 187L119 188L118 187z"/>
<path style="fill:#47618f; stroke:none;" d="M173.667 187.333L174.333 187.667L173.667 187.333M112.667 188.333L113.333 188.667L112.667 188.333z"/>
<path style="fill:#9892c5; stroke:none;" d="M119 188L120 189L119 188z"/>
<path style="fill:#47618f; stroke:none;" d="M170 188L171 189L170 188z"/>
<path style="fill:#9892c5; stroke:none;" d="M120 189L121 190L120 189M161 189L162 190L161 189z"/>
<path style="fill:#47618f; stroke:none;" d="M161 192L169 190C165.625 188.595 163.147 189.023 161 192z"/>
<path style="fill:#9892c5; stroke:none;" d="M121 190L122 191L121 190z"/>
<path style="fill:#82685d; stroke:none;" d="M161 190L162 191L161 190z"/>
<path style="fill:#47618f; stroke:none;" d="M122 191L123 192L122 191z"/>
<path style="fill:#9892c5; stroke:none;" d="M123.667 191.333L124.333 191.667L123.667 191.333M160 191L161 192L160 191z"/>
</svg>
